<svg xmlns="http://www.w3.org/2000/svg" viewBox="0 0 64 64">
  <defs>
    <filter id="a" width="1.1" height="1.1" x="-.05" y="-.05" color-interpolation-filters="sRGB">
      <feGaussianBlur stdDeviation=".83"/>
    </filter>
  </defs>
  <path fill="#690" d="M16 16h16v16H16z"/>
  <path fill="#390" d="M0 16h16v16H0z"/>
  <path fill="#c90" d="M48 16h16v16H48z"/>
  <path fill="#990" d="M32 16h16v16H32z"/>
  <path fill="#6c0" d="M16 0h16v16H16z"/>
  <path fill="#3c0" d="M0 0h16v16H0z"/>
  <path fill="#cc0" d="M48 0h16v16H48z"/>
  <path fill="#9c0" d="M32 0h16v16H32z"/>
  <path fill="#660" d="M16 32h16v16H16z"/>
  <path fill="#360" d="M0 32h16v16H0z"/>
  <path fill="#c60" d="M48 32h16v16H48z"/>
  <path fill="#960" d="M32 32h16v16H32z"/>
  <path fill="#630" d="M16 48h16v16H16z"/>
  <path fill="#330" d="M0 48h16v16H0z"/>
  <path fill="#c30" d="M48 48h16v16H48z"/>
  <path fill="#930" d="M32 48h16v16H32z"/>
  <path fill="#fff" d="M41.98 1.99 2.05 2 2 41.98h2l.06-37.97L42 3.99z" color="#000" filter="url(#a)" opacity=".5"/>
  <path d="M41.98 1.99 2.05 2 2 41.98h2l.06-37.97L42 3.99Z" color="#000" filter="url(#a)" opacity=".5" transform="rotate(180 32 32)"/>
</svg>
